Coordinates
version=1
nRows=17
nColumns=27
inDegrees=yes

Units are S.I. units (second, meters, Newtons, ...)
If the header above contains a line with 'inDegrees', this indicates whether rotational values are in degrees (yes) or radians (no).

endheader
time	pelvis_rotation	pelvis_tilt	pelvis_list	pelvis_tx	pelvis_ty	pelvis_tz	hip_flexion_r	hip_adduction_r	hip_rotation_r	knee_angle_r	knee_rotation_r	knee_adduction_r	knee_angle_r_beta	ankle_angle_r	subtalar_angle_r	mtp_angle_r	hip_flexion_l	hip_adduction_l	hip_rotation_l	knee_angle_l	knee_rotation_l	knee_adduction_l	knee_angle_l_beta	ankle_angle_l	subtalar_angle_l	mtp_angle_l
      5.33500000	      5.09166007	    -38.93999915	      6.07463587	     -0.01919130	      0.65027299	     -1.17713947	    103.77139275	    -41.81891215	     -5.94380039	     74.37403828	     -8.09007192	      9.44509551	      1.29807185	      6.67703177	      6.97743400	      0.00000000	     98.81796515	    -31.55767625	    -12.00759683	     70.04126165	     -6.48939594	     -9.56053583	      1.22245063	      5.29378420	     19.50162179	      0.00000000
      5.34000000	      5.73193800	    -38.60068392	      6.14266960	     -0.01788920	      0.65188627	     -1.17764206	    102.91127232	    -42.62912952	     -7.18126438	     74.05020312	     -8.69637125	      9.70647843	      1.29241986	      6.68860025	      7.39814116	      0.00000000	     98.39115457	    -30.80999584	    -12.27479369	     69.72801383	     -6.92860607	     -9.76500024	      1.21698342	      5.28455028	     19.48833582	      0.00000000
      5.34500000	      5.72066925	    -38.54156146	      6.08743168	     -0.01737307	      0.65261808	     -1.17783436	    102.61937141	    -42.69016335	     -7.36299021	     73.90638803	     -8.65836969	      9.70897787	      1.28990981	      6.68047688	      7.47090780	      0.00000000	     98.22412621	    -30.79853970	    -12.22276398	     69.64263892	     -6.84601446	     -9.76408176	      1.21549335	      5.27746839	     19.47529317	      0.00000000
      5.35000000	      5.75707277	    -38.47696903	      6.07475260	     -0.01679204	      0.65330033	     -1.17806278	    102.36441806	    -42.80972414	     -7.52592094	     73.78103545	     -8.63476038	      9.70928273	      1.28772199	      6.67240012	      7.63013498	      0.00000000	     98.04447833	    -30.75206408	    -12.22322185	     69.56341078	     -6.79304085	     -9.76377200	      1.21411056	      5.27562116	     19.48375418	      0.00000000
      5.35500000	      5.65219050	    -38.36295882	      6.10948033	     -0.01624557	      0.65393489	     -1.17823152	    102.16728066	    -42.75385980	     -7.48137935	     73.66655102	     -8.59170807	      9.70891079	      1.28572386	      6.67402290	      7.71027065	      0.00000000	     97.71696266	    -30.85718960	    -12.37932706	     69.48603012	     -6.73223488	     -9.76415286	      1.21276001	      5.34111427	     19.52000811	      0.00000000
      5.36000000	      5.57250050	    -38.26782918	      6.13545382	     -0.01570219	      0.65457511	     -1.17838948	    101.97402358	    -42.72462738	     -7.46968263	     73.55472106	     -8.54754099	      9.71030443	      1.28377206	      6.66613206	      7.76342127	      0.00000000	     97.42376192	    -30.93425892	    -12.51281456	     69.39846294	     -6.68089854	     -9.76461039	      1.21123167	      5.36836507	     19.56311086	      0.00000000
      5.36500000	      5.50058555	    -38.19796237	      6.12804903	     -0.01516004	      0.65521376	     -1.17854158	    101.76242472	    -42.70650617	     -7.51683266	     73.43123725	     -8.51015665	      9.71121519	      1.28161686	      6.64947792	      7.83358974	      0.00000000	     97.18983155	    -30.99828844	    -12.59507788	     69.32060785	     -6.63167127	     -9.76387187	      1.20987285	      5.39288412	     19.58501904	      0.00000000
      5.37000000	      5.43422418	    -38.06323202	      6.10888687	     -0.01455540	      0.65570899	     -1.17866803	    101.49604443	    -42.71689421	     -7.56202453	     73.35520195	     -8.46033836	      9.70875172	      1.28028980	      6.69748779	      7.90474854	      0.00000000	     96.91626122	    -31.06982579	    -12.63184907	     69.27840577	     -6.56193267	     -9.76360237	      1.20913628	      5.48817338	     19.67113125	      0.00000000
      5.37500000	      5.44063272	    -38.01400803	      6.12236044	     -0.01401443	      0.65636503	     -1.17884411	    101.30231843	    -42.77375994	     -7.64094304	     73.23322069	     -8.43291302	      9.71203533	      1.27816082	      6.65854293	      8.01480371	      0.00000000	     96.72527834	    -31.05327457	    -12.69132091	     69.18938837	     -6.51594680	     -9.76508240	      1.20758263	      5.45473738	     19.63058768	      0.00000000
      5.38000000	      5.30070070	    -37.89995015	      6.20660822	     -0.01340392	      0.65686618	     -1.17897696	    101.20277347	    -42.67789992	     -7.46762525	     73.16490154	     -8.38171188	      9.71038131	      1.27696843	      6.67623372	      8.09421902	      0.00000000	     96.35434294	    -31.21357534	    -12.96263479	     69.12774284	     -6.48559356	     -9.76417707	      1.20650672	      5.53308154	     19.74162159	      0.00000000
      5.38500000	      5.03852239	    -38.12615371	      5.98654733	     -0.01368204	      0.65673047	     -1.17891942	    101.30318687	    -42.42527327	     -6.95347402	     73.19200826	     -7.73955874	      9.46174265	      1.27744153	      6.66581511	      7.93418404	      0.00000000	     96.66640379	    -31.48219600	    -12.26888097	     69.24929682	     -5.92407833	     -9.56071768	      1.20862823	      5.53354768	     19.56254545	      0.00000000
      5.39000000	      5.38054143	    -37.77778542	      5.99185832	     -0.01226004	      0.65807306	     -1.17920335	    100.49587447	    -42.90212514	     -8.04344948	     72.92395645	     -8.33944198	      9.71313535	      1.27276314	      6.69843130	      8.27388890	      0.00000000	     96.18128306	    -31.08663882	    -12.62398539	     69.00889879	     -6.33610524	     -9.76436169	      1.20443250	      5.54951151	     19.68948665	      0.00000000
      5.39500000	      5.26672470	    -37.65855763	      6.12117060	     -0.01165607	      0.65865751	     -1.17930349	    100.41647357	    -42.80487067	     -7.80417791	     72.84798393	     -8.27168042	      9.71352996	      1.27143717	      6.70192158	      8.28537122	      0.00000000	     95.76225189	    -31.20906079	    -12.95652666	     68.90628888	     -6.32836797	     -9.76458443	      1.20264162	      5.60635715	     19.78527344	      0.00000000
      5.40000000	      5.14677177	    -37.59363033	      5.93480018	     -0.01102305	      0.65922404	     -1.17936299	    100.03573532	    -42.76245689	     -8.09090161	     72.73020663	     -8.25364506	      9.71319571	      1.26938157	      6.73992190	      8.35324129	      0.00000000	     95.66479332	    -31.31614555	    -12.81932677	     68.88110563	     -6.27038204	     -9.76341755	      1.20220209	      5.65931745	     19.87333789	      0.00000000
      5.40500000	      5.31270459	    -37.52456138	      6.02207544	     -0.01041120	      0.65986782	     -1.17949211	     99.83302492	    -42.96298342	     -8.16311472	     72.63534173	     -8.21071514	      9.71461155	      1.26772587	      6.73954807	      8.43486028	      0.00000000	     95.45865231	    -31.13672805	    -12.81632966	     68.76882251	     -6.19978656	     -9.76387730	      1.20024238	      5.65870951	     19.77581607	      0.00000000
      5.41000000	      5.29290332	    -37.44553367	      5.96117180	     -0.00978294	      0.66051624	     -1.17956422	     99.52052632	    -42.98950878	     -8.32623655	     72.51851423	     -8.17889416	      9.71442087	      1.26568684	      6.76592083	      8.49868435	      0.00000000	     95.27678043	    -31.13668335	    -12.76916010	     68.69220768	     -6.14193138	     -9.76303042	      1.19890519	      5.68042902	     19.77481091	      0.00000000
      5.41500000	      5.06498925	    -37.38218136	      5.77974710	     -0.00911905	      0.66121874	     -1.17959802	     99.15487301	    -42.80598308	     -8.54488056	     72.35047072	     -8.17458331	      9.71346021	      1.26275393	      6.75740721	      8.52830086	      0.00000000	     95.10516060	    -31.35392934	    -12.75444827	     68.64393025	     -6.11065732	     -9.76112284	      1.19806259	      5.69891294	     19.94667156	      0.00000000
